<?xml version="1.0" standalone="no"?>
<!DOCTYPE svg PUBLIC "-//W3C//DTD SVG 20010904//EN"
 "http://www.w3.org/TR/2001/REC-SVG-20010904/DTD/svg10.dtd">
<svg version="1.0" xmlns="http://www.w3.org/2000/svg"
 width="500.000000pt" height="500.000000pt" viewBox="0 0 500.000000 500.000000"
 preserveAspectRatio="xMidYMid meet">
<metadata>
Created by potrace 1.11, written by Peter Selinger 2001-2013
</metadata>
<g transform="translate(0.000000,500.000000) scale(0.100000,-0.100000)"
fill="#000000" stroke="none">
<path d="M2312 4949 c-424 -30 -832 -170 -1182 -404 -173 -116 -265 -192 -410
-341 -358 -368 -580 -810 -667 -1329 -26 -158 -26 -592 0 -750 87 -519 309
-961 667 -1329 145 -149 237 -225 410 -341 285 -191 606 -318 942 -374 633
-106 1268 26 1788 374 173 116 265 192 410 341 358 368 580 810 667 1329 14
87 18 164 18 375 0 211 -4 288 -18 375 -87 519 -309 961 -667 1329 -145 149
-237 225 -410 341 -359 240 -755 373 -1205 405 -155 11 -179 11 -343 -1z m356
-1293 l2 -939 -32 8 c-94 21 -118 24 -175 25 l-63 0 0 918 c0 505 3 922 7 926
4 3 63 5 132 4 l126 -3 3 -939z m-520 -544 l2 -453 -84 -83 c-70 -69 -92 -100
-132 -181 l-49 -98 -3 624 c-1 343 0 630 3 637 3 9 36 12 132 10 l128 -3 3
-453z m1032 -433 l0 -891 -32 22 c-18 11 -47 28 -64 37 l-31 15 14 52 c18 69
18 248 -1 329 -19 83 -54 160 -105 236 l-41 60 0 515 0 516 130 0 130 0 0
-891z m-568 -191 c142 -66 240 -232 241 -408 1 -132 -41 -238 -131 -332 -80
-84 -144 -113 -252 -113 -73 0 -93 4 -143 28 -115 57 -204 178 -233 319 -26
122 1 257 73 365 103 156 288 214 445 141z m-984 -514 l2 -312 -36 -53 c-76
-111 -131 -271 -117 -339 11 -60 10 -60 -388 -60 -312 0 -360 2 -373 16 -42
41 -1 84 81 84 l53 0 0 230 0 230 130 0 130 0 0 -230 0 -230 130 0 130 0 0
490 0 491 128 -3 127 -3 3 -311z m2072 -174 l0 -490 125 0 125 0 0 230 0 230
135 0 135 0 0 -233 c0 -221 1 -233 20 -245 24 -15 26 -45 4 -66 -13 -14 -61
-16 -373 -16 -270 0 -361 3 -374 13 -10 7 -24 44 -34 87 -14 63 -17 149 -20
528 l-4 452 131 0 130 0 0 -490z m-1547 -165 c29 -25 84 -62 124 -82 62 -30
85 -36 161 -41 139 -7 251 34 361 133 38 34 44 36 83 30 117 -19 244 -129 315
-271 l38 -78 3 -270 c4 -317 1 -334 -70 -412 -81 -88 -220 -145 -430 -175
-111 -16 -420 -16 -538 0 -187 26 -345 86 -420 161 -76 76 -75 70 -75 401 l0
296 42 84 c64 129 169 227 271 255 72 19 80 17 135 -31z"/>
</g>
</svg>
